<svg width="429" height="317" viewBox="0 0 429 317" fill="none" xmlns="http://www.w3.org/2000/svg">
<g clip-path="url(#clip0)">
<path opacity="0.2" d="M395.392 0H34.1025V317H395.392V0Z" fill="#94E2FF"/>
<path opacity="0.5" d="M340.531 29.5968H88.4689V287.837H340.531V29.5968Z" fill="#94E2FF"/>
<path d="M429 45.5335H294.073V273.201H429V45.5335Z" fill="url(#paint0_linear)"/>
<path d="M134.927 46.4008H0V274.068H134.927V46.4008Z" fill="url(#paint1_linear)"/>
<path d="M424.552 49.0027H298.521V268.431H424.552V49.0027Z" fill="#94E2FF"/>
<path d="M4.44814 268.431H130.479L130.479 49.0027H4.44814L4.44814 268.431Z" fill="#94E2FF"/>
<path d="M109.721 68.9507H25.2062V82.394H109.721V68.9507Z" fill="url(#paint2_linear)"/>
<path d="M404.288 89.3324H319.773V102.776H404.288V89.3324Z" fill="url(#paint3_linear)"/>
<path d="M403.794 110.148H319.279V123.591H403.794V110.148Z" fill="url(#paint4_linear)"/>
<path d="M403.794 130.963H319.279V144.406H403.794V130.963Z" fill="url(#paint5_linear)"/>
<path d="M403.794 151.778H319.279V165.222H403.794V151.778Z" fill="url(#paint6_linear)"/>
<path d="M403.794 172.594H319.279V186.037H403.794V172.594Z" fill="url(#paint7_linear)"/>
<path d="M403.794 193.409H319.279V206.852H403.794V193.409Z" fill="url(#paint8_linear)"/>
<path d="M403.794 214.224H319.279V227.668H403.794V214.224Z" fill="url(#paint9_linear)"/>
<path d="M403.794 235.04H319.279V248.483H403.794V235.04Z" fill="url(#paint10_linear)"/>
<path d="M403.794 68.9507H319.279V82.394H403.794V68.9507Z" fill="url(#paint11_linear)"/>
<path d="M109.721 90.1997H25.2062V103.643H109.721V90.1997Z" fill="url(#paint12_linear)"/>
<path d="M109.721 110.581H25.2062V124.025H109.721V110.581Z" fill="url(#paint13_linear)"/>
<path d="M109.721 130.963H25.2062V144.406H109.721V130.963Z" fill="url(#paint14_linear)"/>
<path d="M109.721 151.778H25.2062V165.222H109.721V151.778Z" fill="url(#paint15_linear)"/>
<path d="M109.721 172.594H25.2062V186.037H109.721V172.594Z" fill="url(#paint16_linear)"/>
<path d="M108.239 70.6854H27.1832V81.093H108.239V70.6854Z" fill="white"/>
<path d="M107.991 91.067H26.936V101.475H107.991V91.067Z" fill="white"/>
<path d="M107.991 111.882H26.936V122.29H107.991V111.882Z" fill="white"/>
<path d="M107.991 132.698H26.936V143.105H107.991V132.698Z" fill="white"/>
<path d="M107.991 153.513H26.936V163.921H107.991V153.513Z" fill="white"/>
<path d="M107.991 174.328H26.936V184.736H107.991V174.328Z" fill="white"/>
<path d="M109.721 193.409H25.2062V206.852H109.721V193.409Z" fill="url(#paint17_linear)"/>
<path d="M107.991 195.144H26.936V205.551H107.991V195.144Z" fill="white"/>
<path d="M107.991 195.144H26.936V205.551H107.991V195.144Z" fill="white"/>
<path d="M107.991 215.959H26.936V226.367H107.991V215.959Z" fill="white"/>
<path d="M107.991 236.774H26.936V247.182H107.991V236.774Z" fill="white"/>
<path d="M402.311 70.2517H321.256V80.6594H402.311V70.2517Z" fill="white"/>
<path d="M402.311 91.067H321.256V101.475H402.311V91.067Z" fill="white"/>
<path d="M402.311 111.882H321.256V122.29H402.311V111.882Z" fill="white"/>
<path d="M402.311 132.698H321.256V143.105H402.311V132.698Z" fill="white"/>
<path d="M402.311 153.513H321.256V163.921H402.311V153.513Z" fill="white"/>
<path d="M402.311 174.328H321.256V184.736H402.311V174.328Z" fill="white"/>
<path d="M402.311 195.144H321.256V205.551H402.311V195.144Z" fill="white"/>
<path d="M402.311 215.959H321.256V226.367H402.311V215.959Z" fill="white"/>
<path d="M402.311 236.774H321.256V247.182H402.311V236.774Z" fill="white"/>
<path d="M363.266 279.706H65.2396V296.185H363.266V279.706Z" fill="url(#paint18_linear)"/>
<path d="M361.289 281.44H67.7108V294.45H361.289V281.44Z" fill="#94E2FF"/>
<path d="M363.76 21.6826H66.2281V38.5951H363.76V21.6826Z" fill="url(#paint19_linear)"/>
<path d="M361.289 22.9836H67.7108V35.9932H361.289V22.9836Z" fill="#94E2FF"/>
<path opacity="0.5" d="M287.153 49.0027H142.835V268.431H287.153V49.0027Z" fill="#263238"/>
<path d="M326.03 144.428C329.49 148.496 324.31 153.301 324.31 153.301L325.18 153.565C323.9 154.81 318.844 160.425 299.351 185.829C274.392 218.353 240.759 226.466 240.759 226.466C236.672 223.665 232.024 221.56 227.054 220.261V217.191C233.404 215.547 239.207 212.579 243.967 208.541C248.726 204.502 252.301 199.513 254.385 193.999C257.361 188.83 258.908 183.12 258.902 177.329C258.902 156.514 239.247 139.627 215.004 139.627C190.762 139.627 171.106 156.51 171.106 177.329C171.1 183.12 172.647 188.83 175.623 193.999C177.707 199.513 181.282 204.502 186.042 208.541C190.801 212.579 196.604 215.547 202.954 217.191V220.261C197.984 221.56 193.336 223.665 189.249 226.466C189.249 226.466 155.601 218.344 130.642 185.82C111.149 160.417 106.093 154.797 104.813 153.556L105.683 153.292C105.683 153.292 100.518 148.487 103.963 144.419C107.408 140.352 81.1541 135.547 84.164 144.419C87.1739 153.292 91.0488 157.728 91.0488 157.728C91.0488 157.728 146.008 233.782 174.699 246.349C174.021 248.926 173.679 251.562 173.681 254.207V268.995H256.308V254.207C256.309 251.562 255.967 248.926 255.29 246.349C283.955 233.773 338.94 157.732 338.94 157.732C338.94 157.732 342.814 153.296 345.824 144.424C348.834 135.551 322.585 140.36 326.03 144.428Z" fill="url(#paint20_linear)"/>
<path d="M214.994 216.189C238.212 216.189 257.034 199.674 257.034 179.302C257.034 158.93 238.212 142.416 214.994 142.416C191.776 142.416 172.954 158.93 172.954 179.302C172.954 199.674 191.776 216.189 214.994 216.189Z" fill="#263238"/>
<path d="M214.994 219.81C236.847 219.81 254.563 204.266 254.563 185.092C254.563 165.917 236.847 150.373 214.994 150.373C193.141 150.373 175.425 165.917 175.425 185.092C175.425 204.266 193.141 219.81 214.994 219.81Z" fill="#F8C198"/>
<path d="M199.332 181.835C202.064 181.835 204.279 179.891 204.279 177.494C204.279 175.097 202.064 173.153 199.332 173.153C196.599 173.153 194.384 175.097 194.384 177.494C194.384 179.891 196.599 181.835 199.332 181.835Z" fill="#263238"/>
<path d="M231.482 181.835C234.214 181.835 236.429 179.891 236.429 177.494C236.429 175.097 234.214 173.153 231.482 173.153C228.75 173.153 226.535 175.097 226.535 177.494C226.535 179.891 228.75 181.835 231.482 181.835Z" fill="#263238"/>
<path d="M226.535 200.998C226.535 203.6 221.37 207.871 214.994 207.871C208.619 207.871 203.454 203.6 203.454 200.998C203.454 198.396 208.619 198.465 214.994 198.465C221.37 198.465 226.535 198.396 226.535 200.998Z" fill="white"/>
<path d="M200.567 178.942C201.479 178.942 202.218 178.294 202.218 177.494C202.218 176.694 201.479 176.046 200.567 176.046C199.656 176.046 198.917 176.694 198.917 177.494C198.917 178.294 199.656 178.942 200.567 178.942Z" fill="white"/>
<path d="M233.128 178.942C234.04 178.942 234.779 178.294 234.779 177.494C234.779 176.694 234.04 176.046 233.128 176.046C232.216 176.046 231.477 176.694 231.477 177.494C231.477 178.294 232.216 178.942 233.128 178.942Z" fill="white"/>
<path d="M218.948 165.82C216.536 165.82 214.371 163.981 214.114 161.878C214.031 160.821 214.318 159.766 214.936 158.856C215.554 157.945 216.475 157.222 217.574 156.783C217.799 156.681 218.047 156.624 218.301 156.618C219.131 156.618 219.541 157.485 219.808 158.175C220.638 160.308 222.111 162.39 224.424 163.379C226.737 164.367 229.97 163.86 231.19 161.874C227.919 160.595 226.52 156.579 228.423 153.916C229.159 152.889 230.306 152.017 230.538 150.82C230.963 148.652 228.255 147.073 225.858 146.423C218.938 144.545 194.819 144.337 193.49 153.396C192.096 162.954 211.352 167.086 218.948 165.82Z" fill="#263238"/>
<path d="M179.64 191.182C180.909 190.743 180.787 187.825 179.366 184.666C177.946 181.507 175.765 179.302 174.496 179.742C173.226 180.181 173.348 183.099 174.769 186.258C176.189 189.417 178.37 191.622 179.64 191.182Z" fill="#F8C198"/>
<path d="M255.208 186.235C256.629 183.076 256.751 180.158 255.481 179.719C254.212 179.279 252.031 181.484 250.611 184.643C249.19 187.802 249.068 190.72 250.337 191.159C251.607 191.599 253.788 189.394 255.208 186.235Z" fill="#F8C198"/>
<path d="M239.662 227.381C239.662 227.381 271.871 219.446 295.778 187.62C319.684 155.794 320.92 155.707 320.92 155.707L333.696 160.135C333.696 160.135 274.347 244.038 248.795 248.379C223.243 252.72 239.662 227.381 239.662 227.381Z" fill="#FF9800"/>
<path d="M319.689 155.798C319.689 155.798 324.631 151.098 321.34 147.125C318.048 143.153 343.185 138.452 340.299 147.125C337.412 155.798 333.706 160.135 333.706 160.135L319.689 155.798Z" fill="#F8C198"/>
<path d="M190.327 227.381C190.327 227.381 158.117 219.446 134.211 187.62C110.304 155.794 109.069 155.707 109.069 155.707L96.2927 160.135C96.2927 160.135 155.646 244.038 181.203 248.379C206.76 252.72 190.327 227.381 190.327 227.381Z" fill="#FF9800"/>
<path d="M110.299 155.798C110.299 155.798 105.357 151.098 108.649 147.125C111.94 143.153 86.8032 138.452 89.6896 147.125C92.576 155.798 96.2828 160.135 96.2828 160.135L110.299 155.798Z" fill="#F8C198"/>
<g opacity="0.2">
<path opacity="0.2" d="M228.482 148.643C228.245 149.84 227.098 150.707 226.367 151.739C224.701 154.072 225.566 157.446 228.008 159.111C227.656 158.331 227.512 157.49 227.585 156.654C227.657 155.817 227.946 155.005 228.428 154.281C229.164 153.253 230.311 152.381 230.543 151.184C230.81 149.827 229.846 148.699 228.502 147.889C228.537 148.14 228.53 148.394 228.482 148.643Z" fill="white"/>
<path opacity="0.2" d="M218.187 156.987C218.029 156.661 217.881 156.332 217.752 156.002C217.485 155.313 217.075 154.467 216.245 154.445C215.992 154.452 215.743 154.508 215.518 154.61C214.419 155.049 213.498 155.772 212.88 156.683C212.262 157.594 211.975 158.648 212.058 159.706C212.15 160.343 212.394 160.957 212.775 161.506C213.156 162.055 213.665 162.528 214.268 162.893C214.198 162.679 214.148 162.46 214.119 162.238C214.036 161.181 214.323 160.126 214.941 159.216C215.559 158.305 216.48 157.582 217.579 157.143C217.77 157.061 217.976 157.009 218.187 156.987Z" fill="white"/>
<path opacity="0.2" d="M214.703 163.856C208.693 164.077 198.996 162.065 194.216 157.784C197.785 164.445 212.528 167.234 218.928 166.163C218.055 166.137 217.205 165.91 216.464 165.505C215.722 165.1 215.115 164.531 214.703 163.856Z" fill="white"/>
<path opacity="0.2" d="M228.675 160.282C227.232 161.77 224.434 162.082 222.373 161.202C221.7 160.91 221.083 160.529 220.545 160.07C221.343 161.634 222.711 162.922 224.434 163.73C226.747 164.714 229.98 164.211 231.2 162.225C230.161 161.807 229.283 161.132 228.675 160.282Z" fill="white"/>
</g>
<path opacity="0.2" d="M332.055 160.135C332.055 160.135 272.702 244.038 247.12 248.379C245.642 248.638 244.143 248.799 242.637 248.86C244.696 248.912 246.755 248.75 248.771 248.379C274.328 244.042 333.681 160.135 333.681 160.135L332.356 159.723C332.174 159.996 332.055 160.135 332.055 160.135Z" fill="white"/>
<path opacity="0.2" d="M97.9335 160.135C97.9335 160.135 157.287 244.038 182.869 248.379C184.347 248.638 185.845 248.799 187.351 248.86C185.292 248.912 183.234 248.75 181.218 248.379C155.661 244.042 96.3075 160.135 96.3075 160.135L97.6321 159.723C97.8149 159.996 97.9335 160.135 97.9335 160.135Z" fill="white"/>
<path d="M214.994 219.81C220.19 219.81 225.336 220.708 230.137 222.453C234.937 224.197 239.299 226.755 242.974 229.979C246.648 233.202 249.563 237.03 251.551 241.242C253.54 245.454 254.563 249.969 254.563 254.528V268.995H175.425V254.528C175.425 249.969 176.449 245.454 178.437 241.242C180.426 237.03 183.341 233.202 187.015 229.979C190.689 226.755 195.051 224.197 199.852 222.453C204.653 220.708 209.798 219.81 214.994 219.81Z" fill="#FF9800"/>
<path opacity="0.2" d="M215.405 219.992C213.965 219.992 212.526 220.06 211.095 220.196C211.589 220.196 212.039 220.17 212.518 220.17C223.012 220.17 233.077 223.828 240.498 230.338C247.918 236.849 252.087 245.68 252.087 254.888V269.172H254.973V254.71C254.973 245.502 250.805 236.672 243.384 230.161C235.963 223.65 225.899 219.992 215.405 219.992Z" fill="white"/>
<path opacity="0.2" d="M214.584 219.992C216.024 219.992 217.462 220.06 218.894 220.196C218.4 220.196 217.95 220.17 217.47 220.17C206.976 220.17 196.912 223.828 189.491 230.338C182.07 236.849 177.902 245.68 177.902 254.888V269.172H175.015V254.71C175.015 245.502 179.184 236.672 186.605 230.161C194.025 223.65 204.09 219.992 214.584 219.992Z" fill="white"/>
<path d="M226.535 220.352C226.535 214.76 221.368 210.226 214.994 210.226C208.621 210.226 203.454 214.76 203.454 220.352V224.511C203.454 230.103 208.621 234.636 214.994 234.636C221.368 234.636 226.535 230.103 226.535 224.511V220.352Z" fill="#F8C198"/>
</g>
<defs>
<linearGradient id="paint0_linear" x1="361.536" y1="273.201" x2="361.536" y2="45.5335" gradientUnits="userSpaceOnUse">
<stop stop-color="#808080" stop-opacity="0.25"/>
<stop offset="0.54" stop-color="#808080" stop-opacity="0.12"/>
<stop offset="1" stop-color="#808080" stop-opacity="0.1"/>
</linearGradient>
<linearGradient id="paint1_linear" x1="18417.6" y1="143932" x2="18417.6" y2="24406.8" gradientUnits="userSpaceOnUse">
<stop stop-color="#808080" stop-opacity="0.25"/>
<stop offset="0.54" stop-color="#808080" stop-opacity="0.12"/>
<stop offset="1" stop-color="#808080" stop-opacity="0.1"/>
</linearGradient>
<linearGradient id="paint2_linear" x1="67.4637" y1="82.394" x2="67.4637" y2="68.9507" gradientUnits="userSpaceOnUse">
<stop stop-opacity="0.12"/>
<stop offset="0.55" stop-opacity="0.09"/>
<stop offset="1" stop-opacity="0.02"/>
</linearGradient>
<linearGradient id="paint3_linear" x1="62227" y1="3275.38" x2="62227" y2="2858.64" gradientUnits="userSpaceOnUse">
<stop stop-opacity="0.12"/>
<stop offset="0.55" stop-opacity="0.09"/>
<stop offset="1" stop-opacity="0.02"/>
</linearGradient>
<linearGradient id="paint4_linear" x1="62142" y1="3941.47" x2="62142" y2="3524.73" gradientUnits="userSpaceOnUse">
<stop stop-opacity="0.12"/>
<stop offset="0.55" stop-opacity="0.09"/>
<stop offset="1" stop-opacity="0.02"/>
</linearGradient>
<linearGradient id="paint5_linear" x1="62142" y1="4607.56" x2="62142" y2="4190.82" gradientUnits="userSpaceOnUse">
<stop stop-opacity="0.12"/>
<stop offset="0.55" stop-opacity="0.09"/>
<stop offset="1" stop-opacity="0.02"/>
</linearGradient>
<linearGradient id="paint6_linear" x1="62142" y1="5273.64" x2="62142" y2="4856.9" gradientUnits="userSpaceOnUse">
<stop stop-opacity="0.12"/>
<stop offset="0.55" stop-opacity="0.09"/>
<stop offset="1" stop-opacity="0.02"/>
</linearGradient>
<linearGradient id="paint7_linear" x1="62142" y1="5939.74" x2="62142" y2="5523" gradientUnits="userSpaceOnUse">
<stop stop-opacity="0.12"/>
<stop offset="0.55" stop-opacity="0.09"/>
<stop offset="1" stop-opacity="0.02"/>
</linearGradient>
<linearGradient id="paint8_linear" x1="62142" y1="6605.81" x2="62142" y2="6189.07" gradientUnits="userSpaceOnUse">
<stop stop-opacity="0.12"/>
<stop offset="0.55" stop-opacity="0.09"/>
<stop offset="1" stop-opacity="0.02"/>
</linearGradient>
<linearGradient id="paint9_linear" x1="62142" y1="7271.92" x2="62142" y2="6855.18" gradientUnits="userSpaceOnUse">
<stop stop-opacity="0.12"/>
<stop offset="0.55" stop-opacity="0.09"/>
<stop offset="1" stop-opacity="0.02"/>
</linearGradient>
<linearGradient id="paint10_linear" x1="62142" y1="7938" x2="62142" y2="7521.26" gradientUnits="userSpaceOnUse">
<stop stop-opacity="0.12"/>
<stop offset="0.55" stop-opacity="0.09"/>
<stop offset="1" stop-opacity="0.02"/>
</linearGradient>
<linearGradient id="paint11_linear" x1="62142" y1="68.9507" x2="62142" y2="68.9507" gradientUnits="userSpaceOnUse">
<stop stop-opacity="0.12"/>
<stop offset="0.55" stop-opacity="0.09"/>
<stop offset="1" stop-opacity="0.02"/>
</linearGradient>
<linearGradient id="paint12_linear" x1="4335.47" y1="3094.76" x2="18787.5" y2="3094.76" gradientUnits="userSpaceOnUse">
<stop stop-opacity="0.12"/>
<stop offset="0.55" stop-opacity="0.09"/>
<stop offset="1" stop-opacity="0.02"/>
</linearGradient>
<linearGradient id="paint13_linear" x1="4335.47" y1="3746.97" x2="18787.5" y2="3746.97" gradientUnits="userSpaceOnUse">
<stop stop-opacity="0.12"/>
<stop offset="0.55" stop-opacity="0.09"/>
<stop offset="1" stop-opacity="0.02"/>
</linearGradient>
<linearGradient id="paint14_linear" x1="4335.47" y1="4399.19" x2="18787.5" y2="4399.19" gradientUnits="userSpaceOnUse">
<stop stop-opacity="0.12"/>
<stop offset="0.55" stop-opacity="0.09"/>
<stop offset="1" stop-opacity="0.02"/>
</linearGradient>
<linearGradient id="paint15_linear" x1="4335.47" y1="5065.27" x2="18787.5" y2="5065.27" gradientUnits="userSpaceOnUse">
<stop stop-opacity="0.12"/>
<stop offset="0.55" stop-opacity="0.09"/>
<stop offset="1" stop-opacity="0.02"/>
</linearGradient>
<linearGradient id="paint16_linear" x1="4335.47" y1="5731.37" x2="18787.5" y2="5731.37" gradientUnits="userSpaceOnUse">
<stop stop-opacity="0.12"/>
<stop offset="0.55" stop-opacity="0.09"/>
<stop offset="1" stop-opacity="0.02"/>
</linearGradient>
<linearGradient id="paint17_linear" x1="4335.47" y1="6397.44" x2="18787.5" y2="6397.44" gradientUnits="userSpaceOnUse">
<stop stop-opacity="0.12"/>
<stop offset="0.55" stop-opacity="0.09"/>
<stop offset="1" stop-opacity="0.02"/>
</linearGradient>
<linearGradient id="paint18_linear" x1="39404.7" y1="11221.6" x2="219115" y2="11221.6" gradientUnits="userSpaceOnUse">
<stop stop-color="#808080" stop-opacity="0.25"/>
<stop offset="0.54" stop-color="#808080" stop-opacity="0.12"/>
<stop offset="1" stop-color="#808080" stop-opacity="0.1"/>
</linearGradient>
<linearGradient id="paint19_linear" x1="129493" y1="1526.89" x2="129493" y2="867.305" gradientUnits="userSpaceOnUse">
<stop stop-color="#808080" stop-opacity="0.25"/>
<stop offset="0.54" stop-color="#808080" stop-opacity="0.12"/>
<stop offset="1" stop-color="#808080" stop-opacity="0.1"/>
</linearGradient>
<linearGradient id="paint20_linear" x1="157631" y1="91471" x2="157631" y2="52751" gradientUnits="userSpaceOnUse">
<stop stop-color="#808080" stop-opacity="0.25"/>
<stop offset="0.54" stop-color="#808080" stop-opacity="0.12"/>
<stop offset="1" stop-color="#808080" stop-opacity="0.1"/>
</linearGradient>
<clipPath id="clip0">
<rect width="429" height="317" fill="white"/>
</clipPath>
</defs>
</svg>
